<svg width="20" height="20" viewBox="0 0 20 20" fill="none" xmlns="http://www.w3.org/2000/svg">
<path d="M9.99999 19.9903C11.366 19.9903 12.652 19.7289 13.8578 19.2063C15.0637 18.6837 16.1274 17.9618 17.049 17.0407C17.9706 16.1196 18.6928 15.0564 19.2156 13.8511C19.7385 12.6458 20 11.3605 20 9.99512C20 8.62978 19.7385 7.34445 19.2156 6.13916C18.6928 4.93387 17.9706 3.87066 17.049 2.94954C16.1274 2.02842 15.0621 1.30655 13.8529 0.783931C12.6438 0.26131 11.3562 0 9.99018 0C8.62417 0 7.33823 0.26131 6.13235 0.783931C4.92646 1.30655 3.86437 2.02842 2.94607 2.94954C2.02778 3.87066 1.30719 4.93387 0.784313 6.13916C0.261438 7.34445 0 8.62978 0 9.99512C0 11.3605 0.261438 12.6458 0.784313 13.8511C1.30719 15.0564 2.02941 16.1196 2.95097 17.0407C3.87255 17.9618 4.93627 18.6837 6.14214 19.2063C7.34803 19.7289 8.63398 19.9903 9.99999 19.9903Z" fill="white" fill-opacity="0.85"/>
<path d="M7.68624 15.0025C7.52938 14.8457 7.45095 14.6611 7.45095 14.4488C7.45095 14.2365 7.52611 14.0585 7.67643 13.9148L11.8333 10.0049L7.67643 6.10483C7.51958 5.96111 7.44442 5.78147 7.45095 5.56589C7.45749 5.3503 7.53919 5.16739 7.69605 5.01713C7.83984 4.87341 8.01468 4.80645 8.22056 4.81624C8.42644 4.82604 8.60781 4.90607 8.76467 5.05633L12.9705 9.00538C13.1666 9.18177 13.2957 9.39245 13.3578 9.63742C13.4199 9.8824 13.4199 10.1274 13.3578 10.3723C13.2957 10.6173 13.1666 10.828 12.9705 11.0044L8.76467 14.9632C8.62088 15.1005 8.43787 15.1723 8.21565 15.1789C7.99343 15.1854 7.81696 15.1266 7.68624 15.0025Z" fill="#20201F"/>
</svg>
