<svg width="8" height="15" viewBox="0 0 8 15" fill="none" xmlns="http://www.w3.org/2000/svg">
<path d="M0.646719 15C0.482336 15 0.317952 14.9394 0.188176 14.8097C-0.0627253 14.5588 -0.0627253 14.1435 0.188176 13.8926L5.82913 8.25162C6.24441 7.83633 6.24441 7.1615 5.82913 6.74621L0.188176 1.10526C-0.0627253 0.854362 -0.0627253 0.439077 0.188176 0.188176C0.439077 -0.0627253 0.854361 -0.0627253 1.10526 0.188176L6.74621 5.82913C7.18745 6.27036 7.43835 6.86734 7.43835 7.49892C7.43835 8.13049 7.1961 8.72747 6.74621 9.16871L1.10526 14.8097C0.975486 14.9308 0.811103 15 0.646719 15Z" fill="#F9F9F9"/>
</svg>
