<svg width="22" height="19" viewBox="0 0 22 19" fill="none" xmlns="http://www.w3.org/2000/svg">
<path d="M21.7447 3.25223C21.6155 3.04218 21.3792 2.92312 21.1333 2.94445L20.0442 3.03933L21.0852 0.940821C21.2092 0.690885 21.1602 0.389758 20.9634 0.19195C20.7666 -0.00585837 20.4658 -0.0562809 20.2153 0.0664053L17.4601 1.41574C15.7579 0.517093 13.6312 0.783837 12.1678 2.11688C10.9465 3.22941 10.3046 4.94032 10.4243 6.64649C7.23216 6.32656 4.53016 4.49944 2.93243 1.54721C2.82642 1.35137 2.62768 1.22326 2.40555 1.20752C2.183 1.19204 1.9686 1.29066 1.8361 1.4697C0.845144 2.80841 0.775611 4.64393 1.55247 6.154C1.33832 6.09991 1.11044 6.02671 0.857728 5.94229C0.641236 5.86989 0.402561 5.91627 0.228813 6.06438C0.055064 6.21249 -0.0284615 6.44075 0.00869417 6.66603C0.316092 8.5297 1.40286 9.96201 3.11962 10.8098C2.89608 10.8877 2.66799 10.9509 2.43605 10.9992C2.20561 11.0472 2.01902 11.2158 1.948 11.4403C1.87697 11.6646 1.93251 11.9099 2.09333 12.0818C3.32962 13.4033 5.11548 14.0537 6.38398 14.3657C4.94169 15.4952 3.38478 15.6842 1.12242 15.6065C0.860544 15.5986 0.619267 15.7461 0.509165 15.9835C0.399106 16.2209 0.441807 16.5012 0.617688 16.6951C1.56078 17.7346 4.99676 18.9068 8.60875 18.9947C8.75162 18.9981 8.89734 19 9.04613 19C11.5822 19 14.934 18.4563 17.3398 16.0505C19.1607 14.2296 20.2997 12.1333 20.725 9.82008C21.0685 7.95176 20.8514 6.45564 20.7471 5.73659C20.7394 5.68373 20.7312 5.62764 20.7246 5.57858L21.7433 3.93665C21.8732 3.7272 21.8738 3.46229 21.7447 3.25223ZM19.4579 5.9236C19.6512 7.25557 20.2392 11.3088 16.4187 15.1294C14.1979 17.3501 10.9632 17.7489 8.64041 17.6925C6.65844 17.6443 4.88564 17.2652 3.60076 16.8329C4.12243 16.7689 4.58733 16.6702 5.02616 16.5338C6.23591 16.1578 7.25793 15.4812 8.2424 14.4045C8.40651 14.2251 8.45693 13.9692 8.37328 13.7409C8.28962 13.5126 8.08572 13.3499 7.84452 13.319C7.22346 13.2394 5.35731 12.9252 3.88781 11.9116C4.31128 11.7384 4.7197 11.5216 5.10968 11.263C5.32361 11.121 5.43427 10.8667 5.39212 10.6134C5.35002 10.3602 5.16313 10.1552 4.91477 10.0901C3.71201 9.77478 2.26043 9.0692 1.59107 7.49412C2.01851 7.56903 2.48328 7.58716 2.97897 7.47603C3.20873 7.42459 3.39284 7.2531 3.46041 7.02752C3.52803 6.80194 3.46865 6.55742 3.30509 6.38807C2.47223 5.52543 2.16078 4.28227 2.42799 3.21849C3.30309 4.49744 4.41174 5.5738 5.68195 6.3696C7.30686 7.38765 9.20337 7.95027 11.1666 7.99647C11.3663 8.00069 11.558 7.9135 11.6852 7.75873C11.8123 7.60401 11.8612 7.39938 11.8177 7.20387C11.4799 5.68544 11.9617 4.06672 13.045 3.07989C14.1687 2.0563 15.8293 1.90102 17.0834 2.70254C17.2748 2.82492 17.5164 2.83862 17.7206 2.73863L19.0661 2.07964L18.3618 3.49936C18.2572 3.7103 18.2746 3.96131 18.4073 4.15579C18.5399 4.35027 18.7669 4.45824 19.0018 4.43763L19.9507 4.355L19.5136 5.05951C19.3669 5.29597 19.3973 5.50576 19.4579 5.9236Z" fill="#FBFAF3"/>
</svg>
