<svg width="20" height="20" viewBox="0 0 20 20" fill="none" xmlns="http://www.w3.org/2000/svg">
<path d="M9.99999 19.9903C11.366 19.9903 12.652 19.7289 13.8578 19.2063C15.0637 18.6837 16.1274 17.9618 17.049 17.0407C17.9706 16.1196 18.6928 15.0564 19.2156 13.8511C19.7385 12.6458 20 11.3605 20 9.99512C20 8.62977 19.7385 7.34445 19.2156 6.13916C18.6928 4.93387 17.9706 3.87066 17.049 2.94954C16.1274 2.02842 15.0621 1.30655 13.8529 0.783931C12.6438 0.26131 11.3562 0 9.99018 0C8.62417 0 7.33823 0.26131 6.13235 0.783931C4.92646 1.30655 3.86437 2.02842 2.94607 2.94954C2.02778 3.87066 1.30719 4.93387 0.784313 6.13916C0.261438 7.34445 0 8.62977 0 9.99512C0 11.3605 0.261438 12.6458 0.784313 13.8511C1.30719 15.0564 2.02941 16.1196 2.95097 17.0407C3.87255 17.9618 4.93627 18.6837 6.14214 19.2063C7.34803 19.7289 8.63398 19.9903 9.99999 19.9903Z" fill="black" fill-opacity="0.85"/>
<path d="M8.13676 13.9442C7.90146 14.0879 7.67434 14.1124 7.45539 14.0176C7.23643 13.9229 7.12695 13.7547 7.12695 13.513V6.48702C7.12695 6.24531 7.24133 6.08199 7.47009 5.99706C7.69885 5.91214 7.92107 5.93174 8.13676 6.05586L13.9015 9.46595C14.1041 9.59008 14.207 9.76973 14.2103 10.0049C14.2136 10.2401 14.1106 10.423 13.9015 10.5537L8.13676 13.9442Z" fill="white"/>
</svg>
