<svg width="20" height="20" viewBox="0 0 20 20" fill="none" xmlns="http://www.w3.org/2000/svg">
<path d="M0 8.08919C0 9.20424 0.21021 10.25 0.63063 11.2265C1.05105 12.2031 1.63422 13.063 2.38012 13.8064C3.12603 14.5497 3.98891 15.1309 4.96876 15.5499C5.94861 15.9689 6.99796 16.1783 8.11682 16.1783C8.99835 16.1783 9.83917 16.0432 10.6393 15.7729C11.4395 15.5026 12.1718 15.1309 12.8364 14.6579L17.8407 19.6552C17.9628 19.7702 18.0967 19.8564 18.2425 19.9138C18.3883 19.9713 18.5426 20 18.7053 20C18.9358 20 19.1393 19.9476 19.3156 19.8428C19.4919 19.738 19.6292 19.5945 19.7275 19.412C19.8258 19.2296 19.875 19.0268 19.875 18.8038C19.875 18.6416 19.8462 18.4896 19.7885 18.3477C19.7309 18.2057 19.6479 18.0807 19.5394 17.9726L14.5655 12.9853C15.0876 12.3095 15.4962 11.556 15.7911 10.7247C16.0861 9.89353 16.2336 9.01502 16.2336 8.08919C16.2336 6.97413 16.0234 5.92835 15.603 4.95184C15.1826 3.97533 14.5994 3.11539 13.8535 2.37202C13.1076 1.62865 12.2447 1.04747 11.2649 0.628483C10.285 0.209494 9.23568 0 8.11682 0C6.99796 0 5.94861 0.209494 4.96876 0.628483C3.98891 1.04747 3.12603 1.62865 2.38012 2.37202C1.63422 3.11539 1.05105 3.97533 0.63063 4.95184C0.21021 5.92835 0 6.97413 0 8.08919ZM1.73932 8.08919C1.73932 7.21066 1.90375 6.38789 2.23263 5.62087C2.56151 4.85385 3.01923 4.17806 3.60578 3.5935C4.19233 3.00895 4.87043 2.55279 5.64007 2.22503C6.40971 1.89727 7.2353 1.73339 8.11682 1.73339C8.99835 1.73339 9.82393 1.89727 10.5936 2.22503C11.3632 2.55279 12.0396 3.00895 12.6227 3.5935C13.2059 4.17806 13.6637 4.85385 13.9959 5.62087C14.3282 6.38789 14.4943 7.21066 14.4943 8.08919C14.4943 8.96771 14.3282 9.79048 13.9959 10.5575C13.6637 11.3245 13.2059 11.9986 12.6227 12.5798C12.0396 13.161 11.3632 13.6171 10.5936 13.9483C9.82393 14.2794 8.99835 14.445 8.11682 14.445C7.2353 14.445 6.40971 14.2794 5.64007 13.9483C4.87043 13.6171 4.19233 13.161 3.60578 12.5798C3.01923 11.9986 2.56151 11.3245 2.23263 10.5575C1.90375 9.79048 1.73932 8.96771 1.73932 8.08919Z" fill="white" fill-opacity="0.6"/>
</svg>
