<svg width="120" height="27" viewBox="0 0 120 27" fill="none" xmlns="http://www.w3.org/2000/svg">
<g clip-path="url(#clip0_1_206)">
<mask id="mask0_1_206" style="mask-type:luminance" maskUnits="userSpaceOnUse" x="0" y="0" width="120" height="27">
<path d="M120 0H0V27H120V0Z" fill="white"/>
</mask>
<g mask="url(#mask0_1_206)">
<path d="M119.66 0.0065918L111.642 13.4143L119.641 27H110.417L106.25 19.1887H105.934L101.806 27H93.0559L100.68 13.4143L93.0168 0.0065918H102.675L106.388 8.17385H106.724L110.436 0.0065918H119.66Z" fill="#FF4949"/>
<mask id="mask1_1_206" style="mask-type:luminance" maskUnits="userSpaceOnUse" x="0" y="5" width="94" height="16">
<path d="M93.0337 5.40002H0V20.25H93.0337V5.40002Z" fill="white"/>
</mask>
<g mask="url(#mask1_1_206)">
<path fill-rule="evenodd" clip-rule="evenodd" d="M4.07106 15.3989H0C0 15.9423 0.0998825 16.4823 0.299648 17.0189C0.499412 17.5554 0.830056 18.0473 1.29158 18.4944C1.75311 18.9347 2.36963 19.289 3.14114 19.5573C3.91954 19.8187 4.88736 19.9494 6.04464 19.9494C7.42234 19.9494 8.56234 19.7465 9.46476 19.3406C10.3671 18.9278 11.0388 18.3637 11.4796 17.6483C11.9274 16.9329 12.1512 16.1177 12.1512 15.2028C12.1512 14.2329 11.9549 13.4589 11.5623 12.881C11.1696 12.3032 10.6702 11.8698 10.064 11.5809C9.45789 11.292 8.82755 11.0994 8.17315 11.0031L6.36496 10.7245C5.79318 10.6351 5.342 10.5077 5.01135 10.3426C4.6876 10.1707 4.52571 9.93339 4.52571 9.63065C4.52571 9.32798 4.6497 9.07007 4.89769 8.85677C5.14568 8.63665 5.54523 8.52656 6.0963 8.52656C6.51648 8.52656 6.8609 8.59885 7.12955 8.7433C7.3982 8.88086 7.59796 9.05285 7.72888 9.2592C7.85973 9.45873 7.92863 9.65819 7.93551 9.85766H11.8619C11.8619 9.12164 11.6553 8.41309 11.242 7.73208C10.8356 7.05101 10.2053 6.49381 9.3511 6.06042C8.50382 5.62016 7.41546 5.40002 6.08597 5.40002C4.91492 5.40002 3.88854 5.57888 3.00682 5.9366C2.13198 6.29431 1.45002 6.81712 0.960937 7.50501C0.47186 8.18609 0.227319 9.01154 0.227319 9.98152C0.227319 10.8483 0.39953 11.5672 0.743953 12.1381C1.08837 12.7091 1.56368 13.1562 2.16986 13.4796C2.77605 13.8029 3.46489 14.0333 4.23639 14.1709L5.94131 14.4702C6.57504 14.5802 7.06072 14.7178 7.3982 14.8829C7.74263 15.0411 7.91488 15.3025 7.91488 15.6671C7.91488 15.8598 7.85629 16.042 7.73919 16.214C7.62897 16.3791 7.44303 16.5133 7.18119 16.6164C6.92636 16.7196 6.57847 16.7712 6.13763 16.7712C5.80008 16.7712 5.50389 16.7334 5.24901 16.6577C4.99412 16.5752 4.7806 16.4685 4.60837 16.3379C4.43618 16.2003 4.30529 16.0523 4.21572 15.8941C4.1262 15.729 4.07796 15.5639 4.07106 15.3989ZM16.3773 19.712H20.7171V9.0941H24.3025V5.62703H12.7919V9.0941H16.3773V19.712ZM35.1208 6.23584C34.2942 5.82997 33.2644 5.62703 32.0314 5.62703H25.5631V19.712H29.8098V15.017H30.8947L33.1576 19.712H37.921L35.1518 14.4702C35.4205 14.3463 35.7477 14.1193 36.1334 13.7891C36.526 13.4589 36.8705 13.0186 37.1667 12.4683C37.4698 11.918 37.6213 11.2542 37.6213 10.4768C37.6213 9.50686 37.4113 8.6573 36.991 7.9281C36.5709 7.1989 35.9474 6.63483 35.1208 6.23584ZM31.37 12.1278H29.8098V8.73297H31.37C31.8247 8.73297 32.2346 8.87742 32.5997 9.16632C32.9647 9.4484 33.1472 9.87831 33.1472 10.4562C33.1472 11.0272 32.9682 11.4503 32.61 11.7254C32.2587 11.9937 31.8454 12.1278 31.37 12.1278ZM43.64 19.712H39.3468V5.62703H43.64V5.6236H59.654V9.05049H43.64V8.95997H43.6351V11.1785H43.64V10.9544H59.654V14.3813H43.64V14.1916H43.6351V16.3791H43.64V16.2851H59.654V19.712H49.4005H43.64ZM62.4405 19.712H66.7284L67.3587 17.0499H71.2133L71.8227 19.712H76.4515L72.2151 5.62703H66.7181L62.4405 19.712ZM69.2083 9.20763H69.4254L70.5209 14.0058H68.0717L69.2083 9.20763ZM77.64 19.712H81.4733V11.8596H81.6796L84.0978 17.0395H86.371L88.7683 11.8596H88.9645V19.712H92.8598V5.62703H88.3652L85.3375 11.9111H85.1933L82.1757 5.62703H77.64V19.712Z" fill="white"/>
</g>
</g>
</g>
<defs>
<clipPath id="clip0_1_206">
<rect width="120" height="27" fill="white"/>
</clipPath>
</defs>
</svg>
